# xmcd
#
# Track frame offsets:
#	150
#	21277
#	36490
#	55865
#
# Disc length: 995 seconds
#
# Revision: 6
# Processed by: cddbd v1.5.2PL0 Copyright (c) Steve Scherf et al.
# Submitted via: EZCDAudioConverter 1.3.4.1
#
DISCID=3003e104
DTITLE=R.E.M. - Crush With Eyeliner
DYEAR=1995
DGENRE=
TTITLE0=Crush With Eyeliner
TTITLE1=Fall On Me [Live]
TTITLE2=Me In Honey [Live]
TTITLE3=Finest Worksong [Live]
EXTD=
EXTT0=
EXTT1=
EXTT2=
EXTT3=
PLAYORDER=
